<svg width="34" height="28" viewBox="0 0 34 28" fill="none" xmlns="http://www.w3.org/2000/svg">
<path d="M17 0.875C12.2305 0.875 8.41145 3.03125 5.63124 5.59766C2.86874 8.14062 1.02117 11.1875 0.147559 13.2793C-0.0472331 13.7422 -0.0472331 14.2578 0.147559 14.7207C1.02117 16.8125 2.86874 19.8594 5.63124 22.4023C8.41145 24.9688 12.2305 27.125 17 27.125C21.7694 27.125 25.5885 24.9688 28.3687 22.4023C31.1312 19.8535 32.9788 16.8125 33.8583 14.7207C34.0531 14.2578 34.0531 13.7422 33.8583 13.2793C32.9788 11.1875 31.1312 8.14062 28.3687 5.59766C25.5885 3.03125 21.7694 0.875 17 0.875ZM8.49999 14C8.49999 11.7622 9.39552 9.61612 10.9896 8.03379C12.5836 6.45145 14.7456 5.5625 17 5.5625C19.2543 5.5625 21.4163 6.45145 23.0104 8.03379C24.6045 9.61612 25.5 11.7622 25.5 14C25.5 16.2378 24.6045 18.3839 23.0104 19.9662C21.4163 21.5486 19.2543 22.4375 17 22.4375C14.7456 22.4375 12.5836 21.5486 10.9896 19.9662C9.39552 18.3839 8.49999 16.2378 8.49999 14ZM17 10.25C17 12.3184 15.3059 14 13.2222 14C12.8031 14 12.4017 13.9297 12.0239 13.8066C11.6993 13.7012 11.3215 13.9004 11.3333 14.2402C11.351 14.6445 11.4101 15.0488 11.5222 15.4531C12.3309 18.4531 15.4417 20.2344 18.4639 19.4316C21.4861 18.6289 23.2805 15.541 22.4719 12.541C21.8167 10.1094 19.6503 8.47461 17.242 8.375C16.8996 8.36328 16.6989 8.73242 16.8052 9.06055C16.9292 9.43555 17 9.83398 17 10.25Z" fill="#2364AA"/>
</svg>
